<?xml version="1.0" encoding="UTF-8"?>
<svg width="53px" height="16px" viewBox="0 0 53 16" version="1.1" xmlns="http://www.w3.org/2000/svg" xmlns:xlink="http://www.w3.org/1999/xlink">
    <title>WRN</title>
    <g id="Symbols" stroke="none" stroke-width="1" fill="none" fill-rule="evenodd">
        <g id="Header/desktop" transform="translate(-2.000000, -5.000000)" fill="#000000" fill-rule="nonzero">
            <g transform="translate(2.000000, 1.000000)" id="WRN">
                <path d="M6.382,20 L10.716,9.858 L11.398,20 L15.952,20 L22.706,4.556 L18.658,4.556 L14.456,15.732 L13.796,4.556 L9.638,4.556 L4.908,15.798 L4.666,4.556 L0.64,4.556 L1.828,20 L6.382,20 Z M25.632,20 L26.666,14.17 L27.568,14.17 L29.746,20 L33.992,20 L31.506,13.884 C32.7086667,13.5466667 33.6693333,12.9746667 34.388,12.168 C35.1066667,11.3613333 35.554,10.4446667 35.73,9.418 C35.7886667,9.12466667 35.818,8.80933333 35.818,8.472 C35.818,7.31333333 35.4,6.371 34.564,5.645 C33.728,4.919 32.5106667,4.556 30.912,4.556 L30.912,4.556 L24.598,4.556 L21.87,20 L25.632,20 Z M29.46,11.508 L27.128,11.508 L27.81,7.636 L30.142,7.636 C30.7286667,7.636 31.1723333,7.76433333 31.473,8.021 C31.7736667,8.27766667 31.924,8.64066667 31.924,9.11 C31.924,9.18333333 31.9093333,9.33733333 31.88,9.572 C31.7626667,10.188 31.5023333,10.6646667 31.099,11.002 C30.6956667,11.3393333 30.1493333,11.508 29.46,11.508 L29.46,11.508 Z M39.976,20 L41.67,10.474 L46.268,20 L50.03,20 L52.758,4.556 L48.996,4.556 L47.302,14.126 L42.704,4.556 L38.942,4.556 L36.214,20 L39.976,20 Z"></path>
            </g>
        </g>
    </g>
</svg>